:FULLY-SPECIFIED
:FORCE-ALL-JOINTS-BE-3DOF
:DEGREES
374
root 6.31913 16.4877 -16.2603 8.78077 -14.7251 -5.32953
lfemur -41.2825 23.3649 -10.8392
ltibia 76.3791 -0 0
lfoot -11.6092 -3.7686 -0.0130023
ltoes 13.9252 -0 0
rfemur -28.1005 -6.56467 30.683
rtibia 44.195 -0 0
rfoot -19.5284 0.53313 -0.0015128
rtoes 17.3506 -0 0
lowerback 5.22195 1.04722 2.59134
upperback 2.70642 1.50516 1.15179
thorax -0.107954 0.765236 -0.352007
lowerneck -8.06583 -1.54645 2.42848
upperneck -0.90426 -2.33759 2.50581
head 1.07514 -1.12746 0.293209
lclavicle -2.18643e-14 -1.84938e-14 -1.62493e-32
lhumerus -41.2976 -22.6119 96.3651
lradius 57.9389 -0 0
lwrist 21.1518 0 0
lhand -19.8883 3.86857 0.000737391
lfingers 7.12502 -0 0
lthumb 6.44765 33.7504 0.000702864
rclavicle -2.18643e-14 -1.84938e-14 -1.62493e-32
rhumerus -37.3768 11.3358 -93.0301
rradius 63.9026 -0 0
rwrist 7.42927 0 0
rhand -9.88255 -21.0909 -0.0114259
rfingers 7.12502 -0 0
rthumb 16.0962 -50.4342 -0.00960993
375
root 6.2912 16.4824 -16.1812 8.6841 -15.1005 -5.29388
lfemur -41.0701 23.1568 -10.8064
ltibia 75.9628 -0 0
lfoot -11.6553 -3.51617 -0.0196713
ltoes 13.7622 -0 0
rfemur -28.3826 -6.82703 30.5706
rtibia 44.8162 -0 0
rfoot -19.1929 0.529119 -0.00228889
rtoes 17.5885 -0 0
lowerback 5.23928 1.1013 2.53993
upperback 2.69625 1.57459 1.10005
thorax -0.126432 0.799748 -0.382275
lowerneck -8.0408 -1.4761 2.50795
upperneck -0.833888 -2.25261 2.45293
head 1.09584 -1.08363 0.266237
lclavicle -2.18366e-14 -1.79654e-14 -2.45816e-32
lhumerus -41.358 -22.5335 96.3363
lradius 57.8308 -0 0
lwrist 21.1092 0 0
lhand -19.9061 3.8312 0.00111552
lfingers 7.12502 -0 0
lthumb 6.4305 33.7135 0.00106329
rclavicle -2.18366e-14 -1.79654e-14 -2.45816e-32
rhumerus -37.4938 11.3089 -92.9995
rradius 63.9305 -0 0
rwrist 7.43761 0 0
rhand -10.042 -21.0266 -0.0172856
rfingers 7.12502 -0 0
rthumb 15.9425 -50.378 -0.0145382
376
root 6.25799 16.4762 -16.087 8.56867 -15.5466 -5.25057
lfemur -40.8182 22.9092 -10.7685
ltibia 75.4679 -0 0
lfoot -11.7101 -3.21608 -0.0273353
ltoes 13.5683 -0 0
rfemur -28.7173 -7.13954 30.4386
rtibia 45.5546 -0 0
rfoot -18.7937 0.524341 -0.00318138
rtoes 17.8713 -0 0
lowerback 5.25982 1.16562 2.47882
upperback 2.68409 1.65712 1.03853
thorax -0.148423 0.840765 -0.418274
lowerneck -8.01091 -1.39251 2.60247
upperneck -0.750335 -2.15149 2.39021
head 1.12042 -1.0315 0.234193
lclavicle -2.18036e-14 -1.73372e-14 -3.4155e-32
lhumerus -41.4299 -22.4404 96.3019
lradius 57.7024 -0 0
lwrist 21.0585 0 0
lhand -19.9272 3.78677 0.00154998
lfingers 7.12502 -0 0
lthumb 6.4101 33.6696 0.00147741
rclavicle -2.18036e-14 -1.73372e-14 -3.4155e-32
rhumerus -37.6328 11.2771 -92.963
rradius 63.9637 -0 0
rwrist 7.44753 0 0
rhand -10.2315 -20.9501 -0.0240186
rfingers 7.12502 -0 0
rthumb 15.7597 -50.3113 -0.0202011
377
root 6.21986 16.469 -15.979 8.43534 -16.0589 -5.19955
lfemur -40.5294 22.6245 -10.7265
ltibia 74.8994 -0 0
lfoot -11.7731 -2.8714 -0.0357835
ltoes 13.3457 -0 0
rfemur -29.1012 -7.49943 30.2891
rtibia 46.4026 -0 0
rfoot -18.3354 0.518848 -0.00416507
rtoes 18.1962 -0 0
lowerback 5.28333 1.23952 2.40867
upperback 2.67 1.75187 0.967858
thorax -0.173715 0.88786 -0.459643
lowerneck -7.97642 -1.29657 2.71108
upperneck -0.654511 -2.03524 2.31836
head 1.14861 -0.971606 0.197415
lclavicle -2.17658e-14 -1.66156e-14 -4.47054e-32
lhumerus -41.5124 -22.3335 96.2623
lradius 57.5549 -0 0
lwrist 21.0003 0 0
lhand -19.9515 3.73574 0.00202879
lfingers 7.12502 -0 0
lthumb 6.38667 33.6192 0.00193379
rclavicle -2.17658e-14 -1.66156e-14 -4.47054e-32
rhumerus -37.7925 11.2406 -92.921
rradius 64.0018 -0 0
rwrist 7.45892 0 0
rhand -10.4493 -20.8622 -0.0314397
rfingers 7.12502 -0 0
rthumb 15.5497 -50.2346 -0.0264425
378
root 6.17712 16.4609 -15.8578 8.28494 -16.6329 -5.14074
lfemur -40.207 22.3054 -10.6814
ltibia 74.2623 -0 0
lfoot -11.8437 -2.48497 -0.0448037
ltoes 13.0963 -0 0
rfemur -29.5307 -7.90393 30.1244
rtibia 47.3529 -0 0
rfoot -17.8219 0.512684 -0.00521499
rtoes 18.5603 -0 0
lowerback 5.30957 1.32236 2.33009
upperback 2.65408 1.85804 0.888626
thorax -0.202093 0.940606 -0.506021
lowerneck -7.93756 -1.18915 2.83284
upperneck -0.547327 -1.90485 2.23808
head 1.18016 -0.904479 0.156242
lclavicle -2.17234e-14 -1.58072e-14 -5.59607e-32
lhumerus -41.605 -22.2138 96.2178
lradius 57.3896 -0 0
lwrist 20.9352 0 0
lhand -19.9786 3.67857 0.0025396
lfingers 7.12502 -0 0
lthumb 6.36042 33.5628 0.00242068
rclavicle -2.17234e-14 -1.58072e-14 -5.59607e-32
rhumerus -37.9715 11.1999 -92.8738
rradius 64.0445 -0 0
rwrist 7.47169 0 0
rhand -10.6932 -20.7636 -0.0393576
rfingers 7.12502 -0 0
rthumb 15.3144 -50.1487 -0.0331017
379
root 6.13013 16.452 -15.7247 8.11834 -17.2637 -5.07406
lfemur -39.8537 21.9542 -10.6342
ltibia 73.5619 -0 0
lfoot -11.9215 -2.06024 -0.0541676
ltoes 12.822 -0 0
rfemur -30.002 -8.35002 29.9466
rtibia 48.3977 -0 0
rfoot -17.2571 0.505894 -0.00630583
rtoes 18.9606 -0 0
lowerback 5.33829 1.41349 2.24374
upperback 2.63641 1.97474 0.801466
thorax -0.233347 0.998576 -0.557046
lowerneck -7.89456 -1.07113 2.96679
upperneck -0.429695 -1.7613 2.15011
head 1.21479 -0.830643 0.111014
lclavicle -2.16768e-14 -1.49182e-14 -6.76462e-32
lhumerus -41.7067 -22.0822 96.1686
lradius 57.2079 -0 0
lwrist 20.8635 0 0
lhand -20.0085 3.6157 0.00306994
lfingers 7.12502 -0 0
lthumb 6.33155 33.5007 0.00292619
rclavicle -2.16768e-14 -1.49182e-14 -6.76462e-32
rhumerus -38.1683 11.1552 -92.8218
rradius 64.0915 -0 0
rwrist 7.48572 0 0
rhand -10.9615 -20.6552 -0.0475792
rfingers 7.12502 -0 0
rthumb 15.0556 -50.0541 -0.0400163
380
root 6.07923 16.4424 -15.5804 7.93635 -17.9469 -4.99938
lfemur -39.4722 21.5736 -10.5859
ltibia 72.8032 -0 0
lfoot -12.0058 -1.60013 -0.0636606
ltoes 12.5249 -0 0
rfemur -30.5117 -8.83487 29.758
rtibia 49.5295 -0 0
rfoot -16.6454 0.498528 -0.00741177
rtoes 19.3942 -0 0
lowerback 5.36924 1.51225 2.15024
upperback 2.61706 2.10114 0.706999
thorax -0.267263 1.06134 -0.612358
lowerneck -7.84768 -0.943392 3.112
upperneck -0.302524 -1.60559 2.05515
head 1.25223 -0.750626 0.0620703
lclavicle -2.16264e-14 -1.39553e-14 -7.9489e-32
lhumerus -41.817 -21.9398 96.1151
lradius 57.011 -0 0
lwrist 20.7858 0 0
lhand -20.0409 3.54759 0.00360743
lfingers 7.12502 -0 0
lthumb 6.30029 33.4335 0.00343851
rclavicle -2.16264e-14 -1.39553e-14 -7.9489e-32
rhumerus -38.3815 11.1071 -92.7653
rradius 64.1424 -0 0
rwrist 7.50093 0 0
rhand -11.2521 -20.5378 -0.0559129
rfingers 7.12502 -0 0
rthumb 14.7754 -49.9517 -0.047025
381
root 6.02475 16.4322 -15.426 7.73974 -18.6777 -4.9166
lfemur -39.0654 21.1657 -10.5372
ltibia 71.9913 -0 0
lfoot -12.0961 -1.1077 -0.0730697
ltoes 12.2069 -0 0
rfemur -31.056 -9.35556 29.5607
rtibia 50.7408 -0 0
rfoot -15.9908 0.490633 -0.00850817
rtoes 19.8582 -0 0
lowerback 5.4022 1.618 2.05024
upperback 2.59611 2.23638 0.605844
thorax -0.303628 1.12848 -0.671595
lowerneck -7.79715 -0.806823 3.26751
upperneck -0.166721 -1.43872 1.95391
head 1.29223 -0.664956 0.00974906
lclavicle -2.15723e-14 -1.29247e-14 -9.12235e-32
lhumerus -41.935 -21.7875 96.0576
lradius 56.8003 -0 0
lwrist 20.7027 0 0
lhand -20.0756 3.4747 0.00414001
lfingers 7.12502 -0 0
lthumb 6.26682 33.3615 0.00394615
rclavicle -2.15723e-14 -1.29247e-14 -9.12235e-32
rhumerus -38.6097 11.0558 -92.7046
rradius 64.1968 -0 0
rwrist 7.5172 0 0
rhand -11.5631 -20.412 -0.0641716
rfingers 7.12502 -0 0
rthumb 14.4754 -49.842 -0.0539705
382
root 5.96704 16.4213 -15.2625 7.5293 -19.4517 -4.82561
lfemur -38.6361 20.7334 -10.4893
ltibia 71.1311 -0 0
lfoot -12.1919 -0.585915 -0.082192
ltoes 11.8701 -0 0
rfemur -31.6316 -9.90915 29.3568
rtibia 52.024 -0 0
rfoot -15.2973 0.482256 -0.00957115
rtoes 20.3498 -0 0
lowerback 5.4369 1.7301 1.94435
upperback 2.57367 2.37961 0.49862
thorax -0.342228 1.19956 -0.734397
lowerneck -7.74321 -0.662298 3.43237
upperneck -0.0231909 -1.26169 1.84711
head 1.33452 -0.574161 -0.0456115
lclavicle -2.15151e-14 -1.1833e-14 -1.02594e-31
lhumerus -42.0601 -21.6263 95.9964
lradius 56.5771 -0 0
lwrist 20.6147 0 0
lhand -20.1123 3.39749 0.0046561
lfingers 7.12502 -0 0
lthumb 6.23137 33.2853 0.00443807
rclavicle -2.15151e-14 -1.1833e-14 -1.02594e-31
rhumerus -38.8514 11.0017 -92.6401
rradius 64.2545 -0 0
rwrist 7.53444 0 0
rhand -11.8927 -20.2788 -0.0721758
rfingers 7.12502 -0 0
rthumb 14.1576 -49.7258 -0.0607019
383
root 5.90643 16.4099 -15.0907 7.30579 -20.264 -4.72631
lfemur -38.187 20.2792 -10.4427
ltibia 70.2279 -0 0
lfoot -12.2925 -0.0380623 -0.0908308
ltoes 11.5163 -0 0
rfemur -32.235 -10.4926 29.1485
rtibia 53.3714 -0 0
rfoot -14.5691 0.473446 -0.0105782
rtoes 20.8661 -0 0
lowerback 5.47313 1.84788 1.83323
upperback 2.5498 2.52996 0.385949
thorax -0.382847 1.27416 -0.8004
lowerneck -7.68613 -0.510696 3.60564
upperneck 0.12717 -1.07549 1.73543
head 1.37884 -0.47877 -0.103674
lclavicle -2.1455e-14 -1.06866e-14 -1.13362e-31
lhumerus -42.1915 -21.4571 95.9317
lradius 56.3427 -0 0
lwrist 20.5222 0 0
lhand -20.1509 3.3164 0.00514479
lfingers 7.12502 -0 0
lthumb 6.19414 33.2053 0.00490388
rclavicle -2.1455e-14 -1.06866e-14 -1.13362e-31
rhumerus -39.1053 10.9453 -92.5722
rradius 64.315 -0 0
rwrist 7.55254 0 0
rhand -12.2389 -20.1387 -0.0797589
rfingers 7.12502 -0 0
rthumb 13.8238 -49.6037 -0.0670767
384
root 5.84327 16.3981 -14.9117 7.06998 -21.1102 -4.61866
lfemur -37.7208 19.8054 -10.3984
ltibia 69.2866 -0 0
lfoot -12.3975 0.532878 -0.0988091
ltoes 11.1476 -0 0
rfemur -32.8627 -11.1029 28.9376
rtibia 54.7757 -0 0
rfoot -13.8102 0.464253 -0.0115084
rtoes 21.4041 -0 0
lowerback 5.51064 1.97069 1.71749
upperback 2.52461 2.68661 0.26845
thorax -0.425271 1.35185 -0.869242
lowerneck -7.62617 -0.352918 3.78634
upperneck 0.283469 -0.881138 1.61958
head 1.42491 -0.379314 -0.164104
lclavicle -2.13924e-14 -9.49184e-15 -1.23303e-31
lhumerus -42.3285 -21.281 95.864
lradius 56.0985 -0 0
lwrist 20.4259 0 0
lhand -20.1911 3.2319 0.005596
lfingers 7.12502 -0 0
lthumb 6.15534 33.1218 0.00533396
rclavicle -2.13924e-14 -9.49184e-15 -1.23303e-31
rhumerus -39.3699 10.8867 -92.5011
rradius 64.3781 -0 0
rwrist 7.5714 0 0
rhand -12.5995 -19.9928 -0.0867585
rfingers 7.12502 -0 0
rthumb 13.4759 -49.4764 -0.0729652
385
root 5.7779 16.3858 -14.7265 6.82266 -21.9856 -4.50261
lfemur -37.2401 19.3147 -10.357
ltibia 68.3123 -0 0
lfoot -12.5062 1.12383 -0.105965
ltoes 10.766 -0 0
rfemur -33.5114 -11.737 28.726
rtibia 56.2291 -0 0
rfoot -13.0247 0.454725 -0.0123429
rtoes 21.9609 -0 0
lowerback 5.54921 2.09789 1.59778
upperback 2.4982 2.84868 0.146747
thorax -0.46928 1.43221 -0.940558
lowerneck -7.56357 -0.189781 3.97358
upperneck 0.444823 -0.679646 1.50023
head 1.47249 -0.276322 -0.226565
lclavicle -2.13276e-14 -8.25528e-15 -1.32217e-31
lhumerus -42.4704 -21.0989 95.7935
lradius 55.8456 -0 0
lwrist 20.3261 0 0
lhand -20.2326 3.14444 0.0060006
lfingers 7.12502 -0 0
lthumb 6.11518 33.0355 0.00571961
rclavicle -2.13276e-14 -8.25528e-15 -1.32217e-31
rhumerus -39.6438 10.8264 -92.4273
rradius 64.4434 -0 0
rwrist 7.59093 0 0
rhand -12.9728 -19.8417 -0.0930357
rfingers 7.12502 -0 0
rthumb 13.1159 -49.3447 -0.0782441
386
root 5.71064 16.3732 -14.5359 6.56461 -22.8856 -4.3782
lfemur -36.7475 18.8096 -10.3191
ltibia 67.3101 -0 0
lfoot -12.6181 1.73171 -0.112155
ltoes 10.3735 -0 0
rfemur -34.1778 -12.3916 28.5156
rtibia 57.7241 -0 0
rfoot -12.2167 0.444913 -0.0130649
rtoes 22.5337 -0 0
lowerback 5.58861 2.22881 1.47472
upperback 2.47067 3.01534 0.0214612
thorax -0.514656 1.51482 -1.01398
lowerneck -7.49862 -0.022187 4.16636
upperneck 0.610354 -0.472033 1.37806
head 1.52132 -0.170326 -0.290726
lclavicle -2.12609e-14 -6.98331e-15 -1.39927e-31
lhumerus -42.6164 -20.9116 95.7206
lradius 55.5856 -0 0
lwrist 20.2236 0 0
lhand -20.2754 3.05448 0.00635054
lfingers 7.12502 -0 0
lthumb 6.07387 32.9467 0.00605317
rclavicle -2.12609e-14 -6.98331e-15 -1.39927e-31
rhumerus -39.9255 10.7648 -92.351
rradius 64.5106 -0 0
rwrist 7.61101 0 0
rhand -13.3569 -19.6863 -0.0984655
rfingers 7.12502 -0 0
rthumb 12.7456 -49.2091 -0.0828102
